<?xml version="1.0" standalone="no"?>
<!DOCTYPE svg PUBLIC "-//W3C//DTD SVG 20010904//EN"
 "http://www.w3.org/TR/2001/REC-SVG-20010904/DTD/svg10.dtd">
<svg version="1.0" xmlns="http://www.w3.org/2000/svg"
 width="300.000000pt" height="300.000000pt" viewBox="0 0 300.000000 300.000000"
 preserveAspectRatio="xMidYMid meet">
<metadata>
Created by potrace 1.10, written by Peter Selinger 2001-2011
</metadata>
<g transform="translate(0.000000,300.000000) scale(0.100000,-0.100000)"
fill="#ffffff" stroke="none">
<path d="M1362 2388 c-26 -26 -6 -68 33 -68 14 0 24 10 32 30 6 17 8 28 3 25
-4 -3 -13 2 -20 10 -15 18 -32 19 -48 3z m43 -29 c0 -7 -8 -15 -17 -17 -18 -3
-25 18 -11 32 10 10 28 1 28 -15z"/>
<path d="M1558 2389 c-22 -12 -23 -33 -2 -53 22 -23 39 -20 55 10 12 23 12 27
-6 40 -22 16 -25 17 -47 3z m38 -20 c10 -17 -13 -36 -27 -22 -12 12 -4 33 11
33 5 0 12 -5 16 -11z"/>
<path d="M1635 2344 c-15 -15 -15 -18 0 -41 15 -23 15 -26 0 -43 -33 -36 13
-82 53 -54 27 19 28 36 2 59 -15 13 -17 22 -10 36 14 26 12 37 -9 49 -15 7
-24 6 -36 -6z m35 -19 c0 -8 -4 -15 -9 -15 -13 0 -22 16 -14 24 11 11 23 6 23
-9z m14 -80 c3 -9 -1 -18 -10 -22 -19 -7 -39 11 -30 26 10 16 33 13 40 -4z"/>
<path d="M1436 2276 c-25 -25 -46 -50 -46 -55 0 -5 14 -19 30 -31 17 -12 28
-25 25 -29 -2 -5 7 -14 21 -22 23 -12 27 -11 36 5 5 9 23 29 39 43 16 15 29
31 29 37 0 6 -20 30 -44 54 l-43 43 -47 -45z m62 -11 c6 -14 18 -25 26 -25 27
0 28 -20 2 -30 -15 -5 -28 -20 -32 -35 -8 -31 -22 -33 -26 -3 -2 12 -13 28
-26 34 -35 18 -37 23 -7 34 15 6 29 19 32 30 7 27 17 25 31 -5z"/>
<path d="M1262 2294 c-17 -12 -21 -21 -16 -37 14 -44 55 -50 73 -11 10 22 9
30 -5 45 -21 23 -24 23 -52 3z m41 -21 c9 -9 -13 -34 -24 -27 -14 8 -11 34 4
34 8 0 17 -3 20 -7z"/>
<path d="M1782 2297 c-9 -10 -8 -18 3 -34 14 -20 13 -23 -13 -45 -44 -37 -26
-94 36 -113 17 -5 29 1 52 24 33 32 32 49 -4 89 -12 14 -21 37 -21 55 0 25 -5
33 -21 35 -11 2 -26 -3 -32 -11z m38 -17 c0 -5 -4 -10 -10 -10 -5 0 -10 5 -10
10 0 6 5 10 10 10 6 0 10 -4 10 -10z m34 -92 c15 -24 -3 -52 -37 -56 -33 -4
-53 28 -37 59 14 25 58 23 74 -3z"/>
<path d="M1110 2248 c-11 -12 -20 -31 -20 -43 0 -28 35 -65 61 -65 11 0 34 13
50 30 31 31 31 38 -4 83 -19 24 -62 21 -87 -5z m75 -18 c17 -18 17 -21 1 -45
-19 -29 -33 -31 -58 -8 -22 20 -23 31 -1 55 21 23 36 23 58 -2z"/>
<path d="M991 2176 c-15 -18 -5 -43 20 -49 25 -7 46 28 28 49 -15 18 -33 18
-48 0z m37 -17 c-2 -6 -8 -10 -13 -10 -5 0 -11 4 -13 10 -2 6 4 11 13 11 9 0
15 -5 13 -11z"/>
<path d="M1920 2155 c-12 -22 -11 -27 6 -40 10 -8 24 -15 30 -15 31 -1 47 63
18 74 -28 11 -40 6 -54 -19z m48 -12 c-4 -22 -22 -20 -26 1 -2 10 3 16 13 16
10 0 15 -7 13 -17z"/>
<path d="M1265 2150 c-18 -20 -18 -21 3 -43 18 -17 26 -19 40 -11 23 15 27 41
8 59 -20 20 -29 19 -51 -5z m40 -20 c0 -7 -6 -15 -12 -17 -8 -3 -13 4 -13 17
0 13 5 20 13 18 6 -3 12 -11 12 -18z"/>
<path d="M1696 2121 c-16 -18 -16 -20 11 -41 15 -12 28 -29 28 -37 0 -21 28
-38 49 -30 37 14 3 69 -36 60 -22 -6 -23 -6 -5 14 17 19 17 22 2 37 -21 21
-28 20 -49 -3z m34 -16 c0 -8 -4 -15 -9 -15 -13 0 -22 16 -14 24 11 11 23 6
23 -9z m50 -66 c0 -5 -7 -9 -15 -9 -15 0 -20 12 -9 23 8 8 24 -1 24 -14z"/>
<path d="M1190 2101 c-16 -31 -12 -47 16 -62 23 -12 27 -12 40 6 21 28 17 50
-11 63 -33 15 -32 15 -45 -7z m48 -28 c-2 -10 -10 -18 -18 -18 -8 0 -16 8 -18
18 -2 12 3 17 18 17 15 0 20 -5 18 -17z"/>
<path d="M1036 2072 c-14 -21 -26 -41 -26 -46 0 -4 14 -25 31 -46 27 -34 34
-37 50 -27 11 7 19 17 19 23 0 6 7 17 15 24 8 7 15 19 15 28 0 21 -48 82 -64
82 -7 0 -25 -17 -40 -38z m54 -2 c0 -10 8 -24 18 -30 13 -8 14 -12 4 -17 -7
-3 -17 -16 -23 -30 -9 -25 -29 -23 -29 2 0 8 -8 19 -17 25 -14 8 -15 12 -5 17
7 3 17 16 22 29 11 29 30 32 30 4z"/>
<path d="M1850 2075 c-10 -13 -10 -19 5 -35 23 -25 32 -25 45 1 20 37 -23 66
-50 34z m40 -15 c0 -5 -7 -10 -15 -10 -8 0 -15 5 -15 10 0 6 7 10 15 10 8 0
15 -4 15 -10z"/>
<path d="M1478 2075 c-2 -2 -59 -12 -87 -15 -11 -1 -110 -114 -106 -121 3 -4
1 -10 -4 -13 -14 -9 -7 -106 11 -146 89 -198 374 -163 406 50 6 40 4 67 -6 98
-16 49 -87 128 -123 137 -30 7 -87 13 -91 10z m90 -44 c97 -50 136 -153 93
-246 -42 -93 -148 -137 -239 -100 -129 54 -163 212 -66 309 58 57 143 72 212
37z"/>
<path d="M2020 2055 c-11 -13 -11 -19 4 -33 20 -20 51 -6 51 24 0 24 -37 30
-55 9z m40 -16 c0 -5 -7 -9 -15 -9 -15 0 -20 12 -9 23 8 8 24 -1 24 -14z"/>
<path d="M1903 2026 c-28 -26 -28 -34 -3 -64 22 -27 48 -24 67 7 15 24 10 41
-20 62 -20 15 -24 14 -44 -5z m43 -21 c14 -13 14 -17 0 -31 -15 -14 -17 -14
-32 0 -12 13 -13 18 -2 30 16 19 16 19 34 1z"/>
<path d="M897 2003 c-37 -43 -15 -103 39 -103 57 0 78 72 31 105 -28 20 -50
19 -70 -2z m54 -13 c23 -13 25 -43 3 -61 -31 -26 -70 25 -44 56 15 18 16 18
41 5z"/>
<path d="M1175 1960 c-21 -23 -14 -47 17 -59 16 -6 28 -4 41 7 23 20 22 38 -5
56 -29 20 -31 20 -53 -4z m45 -26 c0 -8 -7 -14 -15 -14 -15 0 -21 21 -9 33 10
9 24 -2 24 -19z"/>
<path d="M1752 1948 c-16 -16 -15 -39 2 -61 13 -17 15 -17 42 7 28 24 29 24
10 45 -22 24 -37 26 -54 9z m41 -15 c9 -9 -13 -34 -24 -27 -14 8 -11 34 4 34
8 0 17 -3 20 -7z"/>
<path d="M1995 1930 c-17 -18 -17 -21 -1 -45 20 -30 37 -32 61 -5 15 17 16 22
4 37 -30 38 -40 40 -64 13z m45 -25 c0 -8 -6 -15 -14 -15 -17 0 -28 14 -19 24
12 12 33 6 33 -9z"/>
<path d="M1023 1927 c-13 -5 -23 -16 -23 -22 0 -19 28 -38 46 -31 14 5 15 4 5
-8 -10 -11 -6 -20 20 -44 37 -34 55 -31 79 13 13 24 12 28 -11 51 -22 21 -29
23 -53 14 -15 -5 -25 -6 -22 -1 3 4 0 15 -7 24 -9 12 -17 13 -34 4z m18 -30
c-13 -13 -26 -3 -16 12 3 6 11 8 17 5 6 -4 6 -10 -1 -17z m99 -52 c0 -3 -7 -5
-15 -5 -8 0 -16 -8 -16 -17 -1 -17 -2 -17 -6 0 -2 9 -11 17 -19 17 -18 0 -18
6 4 28 16 16 18 16 35 0 9 -10 17 -20 17 -23z"/>
<path d="M1848 1883 c-26 -31 -28 -51 -7 -77 36 -46 99 -23 99 36 0 49 -61 76
-92 41z m72 -43 c0 -25 -30 -41 -53 -29 -39 22 -4 79 35 58 10 -5 18 -18 18
-29z"/>
<path d="M2087 1852 c-37 -22 -34 -66 5 -90 26 -15 28 -15 53 8 29 28 32 51 8
72 -31 26 -38 27 -66 10z m48 -42 c0 -18 -6 -26 -23 -28 -27 -4 -40 22 -22 44
19 22 45 13 45 -16z"/>
<path d="M866 1845 c-20 -20 -20 -18 3 -43 l18 -22 19 21 c13 15 16 24 8 36
-15 24 -29 26 -48 8z m34 -13 c0 -13 -12 -22 -22 -16 -10 6 -1 24 13 24 5 0 9
-4 9 -8z"/>
<path d="M966 1827 c-48 -48 7 -110 59 -67 22 18 18 43 -9 69 l-25 23 -25 -25z
m44 -22 c13 -16 6 -35 -15 -35 -18 0 -28 17 -21 35 7 19 20 19 36 0z"/>
<path d="M1966 1809 c-16 -16 -17 -21 -5 -36 7 -10 14 -19 15 -21 1 -2 12 1
23 8 26 13 27 32 4 52 -16 14 -20 14 -37 -3z m34 -17 c0 -13 -12 -22 -22 -16
-10 6 -1 24 13 24 5 0 9 -4 9 -8z"/>
<path d="M1176 1799 c-29 -42 21 -93 53 -55 24 28 21 56 -5 66 -33 13 -31 13
-48 -11z m44 -25 c0 -8 -7 -14 -15 -14 -15 0 -21 21 -9 33 10 9 24 -2 24 -19z"/>
<path d="M1745 1800 c-20 -22 -15 -44 14 -59 39 -21 69 38 34 65 -24 18 -27
17 -48 -6z m45 -26 c0 -9 -7 -14 -17 -12 -25 5 -28 28 -4 28 12 0 21 -6 21
-16z"/>
<path d="M1908 1749 c-12 -7 -17 -20 -15 -42 2 -29 5 -33 30 -32 20 0 33 8 42
24 11 22 10 27 -10 43 -27 21 -25 20 -47 7z m42 -35 c0 -8 -9 -14 -20 -14 -19
0 -27 19 -14 33 10 9 34 -4 34 -19z"/>
<path d="M828 1719 c-25 -27 -22 -51 8 -80 23 -22 27 -23 52 -8 37 20 42 71
10 93 -29 20 -49 19 -70 -5z m67 -39 c0 -29 -34 -40 -54 -17 -18 23 -2 49 28
45 20 -2 26 -8 26 -28z"/>
<path d="M1028 1718 c-17 -17 -17 -19 2 -38 25 -25 32 -25 47 -1 10 15 8 22
-10 38 -21 19 -22 19 -39 1z m32 -24 c0 -8 -4 -12 -10 -9 -5 3 -10 10 -10 16
0 5 5 9 10 9 6 0 10 -7 10 -16z"/>
<path d="M2016 1691 l-28 -29 30 -33 30 -34 26 24 c14 14 26 32 26 41 0 15
-39 60 -51 60 -3 0 -18 -13 -33 -29z m56 -39 c-7 -2 -12 -10 -12 -18 0 -8 -4
-14 -10 -14 -5 0 -10 6 -10 14 0 8 -6 17 -12 20 -10 5 -10 7 0 12 6 3 12 13
12 22 0 12 5 10 22 -8 15 -16 18 -25 10 -28z"/>
<path d="M1775 1698 c-82 -18 -145 -40 -169 -59 -13 -10 -28 -19 -33 -19 -4 0
-25 -19 -45 -42 l-37 -43 -42 43 c-39 39 -151 104 -189 109 -115 16 -124 15
-149 -11 -20 -21 -22 -30 -14 -48 8 -18 5 -26 -15 -43 -21 -18 -24 -29 -24
-92 0 -39 2 -79 5 -89 4 -14 -3 -25 -26 -39 -17 -11 -36 -32 -41 -47 -12 -35
9 -85 45 -103 20 -11 26 -20 22 -35 -10 -37 49 -77 127 -87 19 -2 40 -6 45 -7
18 -6 47 22 43 41 -3 17 -35 37 -101 62 l-28 11 35 34 c48 44 49 85 4 129 -26
27 -31 39 -29 72 1 22 5 43 9 47 6 6 38 1 119 -17 12 -3 39 -11 60 -18 l37
-12 3 -105 c5 -185 10 -251 19 -260 5 -5 7 70 4 188 l-5 196 -70 22 c-48 15
-63 23 -50 27 11 3 0 3 -25 1 -35 -3 -40 -2 -25 6 16 7 13 8 -15 4 -19 -3 -48
-1 -63 5 l-27 11 0 -65 c0 -61 -1 -65 -22 -65 -22 0 -23 3 -20 82 2 46 7 86
11 90 9 10 199 -19 252 -37 48 -17 62 -19 54 -6 -12 21 -140 73 -215 89 -44 9
-80 20 -80 24 0 5 5 8 10 8 6 0 10 7 10 15 0 18 2 18 88 0 119 -25 197 -70
242 -141 l28 -45 21 35 c48 78 128 126 251 152 67 14 71 13 90 -6 11 -11 20
-22 20 -24 0 -2 -22 -6 -49 -10 -27 -4 -74 -15 -105 -26 -55 -19 -150 -69
-143 -76 2 -2 46 7 98 20 52 13 121 25 154 27 l60 4 3 -88 c3 -87 2 -88 -19
-85 -21 3 -23 8 -20 66 2 63 2 64 -21 55 -13 -4 -43 -7 -68 -7 -26 1 -37 -1
-26 -5 13 -5 2 -11 -39 -20 -32 -7 -73 -18 -92 -25 l-34 -12 -2 -194 c-2 -146
-5 -194 -15 -198 -10 -3 -12 38 -10 194 l3 198 45 18 c25 9 38 17 30 17 -8 0
-34 -8 -57 -19 l-43 -19 0 -199 c0 -196 0 -199 -22 -210 -17 -8 -18 -11 -7
-11 9 -1 22 5 29 13 6 8 17 13 24 10 32 -12 38 30 50 338 2 41 5 47 32 52 11
3 32 9 48 15 16 7 45 14 65 17 20 3 46 7 59 9 20 3 22 0 22 -44 0 -39 -5 -52
-30 -76 -39 -38 -41 -88 -5 -128 14 -15 31 -27 37 -27 21 0 -6 -17 -47 -30
-68 -21 -95 -61 -61 -89 19 -16 154 12 179 37 10 10 19 32 21 48 2 17 10 30
19 32 9 2 25 18 36 36 17 26 19 39 11 65 -8 28 -35 62 -58 73 -4 2 -5 44 -2
95 3 50 3 90 1 88 -2 -2 -13 7 -26 20 -12 14 -26 21 -31 17 -5 -4 -1 2 9 14
22 27 22 36 -5 61 -31 28 -47 31 -93 21z m-622 -339 c78 -35 36 -129 -57 -129
-47 0 -76 23 -76 60 0 35 19 58 55 69 41 13 50 13 78 0z m777 -18 c31 -22 37
-54 16 -87 -29 -43 -135 -29 -158 21 -33 74 66 120 142 66z m-762 -180 c20 -6
49 -13 65 -17 18 -4 27 -13 27 -26 0 -14 -5 -18 -17 -14 -10 3 -48 13 -85 22
-59 14 -68 19 -68 39 0 25 33 40 38 18 2 -7 20 -17 40 -22z m722 8 c0 -21 -24
-33 -95 -49 -23 -5 -49 -12 -58 -16 -12 -4 -17 -1 -17 14 0 16 13 23 65 37 35
10 64 20 63 24 -2 16 3 19 22 14 11 -3 20 -14 20 -24z"/>
<path d="M959 1659 c-16 -31 9 -56 40 -40 25 14 26 24 5 45 -21 21 -31 20 -45
-5z m41 -20 c0 -5 -7 -9 -15 -9 -15 0 -20 12 -9 23 8 8 24 -1 24 -14z"/>
<path d="M2121 1646 c-9 -11 -10 -20 -1 -35 13 -25 18 -26 41 -5 14 13 16 21
8 35 -12 23 -32 24 -48 5z m37 -17 c-2 -6 -8 -10 -13 -10 -5 0 -11 4 -13 10
-2 6 4 11 13 11 9 0 15 -5 13 -11z"/>
<path d="M884 1589 c-17 -19 -17 -20 2 -39 16 -16 21 -17 37 -5 13 9 17 20 13
33 -10 29 -31 34 -52 11z m36 -19 c0 -5 -7 -10 -15 -10 -8 0 -15 5 -15 10 0 6
7 10 15 10 8 0 15 -4 15 -10z"/>
<path d="M972 1560 c-29 -27 -28 -44 4 -69 30 -24 47 -19 63 16 10 22 9 29
-10 49 -27 29 -30 29 -57 4z m45 -26 c8 -21 -13 -42 -28 -27 -13 13 -5 43 11
43 6 0 13 -7 17 -16z"/>
<path d="M1963 1570 c-12 -5 -24 -18 -28 -30 -14 -44 55 -81 85 -46 29 36 -13
93 -57 76z m43 -31 c3 -6 -1 -18 -10 -27 -15 -15 -17 -15 -32 0 -19 19 -11 38
16 38 10 0 22 -5 26 -11z"/>
<path d="M2083 1526 l-28 -25 27 -27 26 -27 25 24 26 24 -24 27 -24 28 -28
-24z m42 -26 c0 -8 -8 -16 -17 -18 -13 -2 -18 3 -18 18 0 15 5 20 18 18 9 -2
17 -10 17 -18z"/>
<path d="M837 1522 c-22 -24 -21 -35 3 -57 18 -17 21 -17 45 -1 30 20 32 37 7
59 -24 22 -35 21 -55 -1z m41 -25 c2 -10 -3 -17 -12 -17 -18 0 -29 16 -21 31
9 14 29 6 33 -14z"/>
<path d="M1318 1493 c7 -3 16 -2 19 1 4 3 -2 6 -13 5 -11 0 -14 -3 -6 -6z"/>
<path d="M1425 1454 c14 -14 15 -43 13 -209 -2 -106 -1 -192 1 -189 2 2 9 0
15 -5 8 -7 10 48 6 195 -4 167 -8 207 -20 214 -24 15 -33 12 -15 -6z"/>
<path d="M935 1442 c-27 -24 -28 -36 -5 -57 27 -24 70 -13 70 19 0 19 -27 57
-41 56 -2 -1 -13 -9 -24 -18z m40 -32 c0 -22 -29 -18 -33 3 -3 14 1 18 15 15
10 -2 18 -10 18 -18z"/>
<path d="M1488 1443 c7 -3 16 -2 19 1 4 3 -2 6 -13 5 -11 0 -14 -3 -6 -6z"/>
<path d="M2022 1414 c-26 -18 -28 -37 -7 -54 12 -10 21 -10 40 -2 30 14 32 33
7 55 -16 15 -20 15 -40 1z m28 -30 c0 -9 -5 -14 -12 -12 -18 6 -21 28 -4 28 9
0 16 -7 16 -16z"/>
<path d="M846 1284 c-20 -19 -20 -25 -2 -50 17 -22 40 -13 65 27 8 13 11 21 7
17 -5 -4 -15 -1 -23 7 -18 19 -28 19 -47 -1z m38 -12 c2 -4 1 -14 -4 -22 -7
-11 -12 -12 -21 -3 -6 6 -8 16 -5 22 8 13 23 14 30 3z"/>
<path d="M2080 1285 c-14 -17 -5 -51 16 -59 9 -3 26 2 39 13 l24 18 -23 22
c-26 25 -39 26 -56 6z m40 -19 c0 -8 -4 -17 -9 -21 -12 -7 -24 12 -16 25 9 15
25 12 25 -4z"/>
<path d="M1248 1002 c-21 -12 -28 -25 -28 -47 0 -17 5 -36 12 -43 17 -17 3
-26 -20 -13 -12 6 -28 11 -36 11 -21 0 -56 -40 -56 -64 -1 -16 -4 -14 -15 11
-12 29 -41 53 -62 53 -4 0 -21 -11 -36 -25 l-27 -26 -30 23 c-31 22 -130 35
-130 17 0 -5 -3 -8 -8 -7 -12 4 -48 -34 -66 -69 -20 -39 -20 -64 -2 -106 25
-56 51 -79 102 -92 27 -7 49 -16 49 -21 1 -32 49 -57 80 -41 28 14 35 27 35
65 0 38 0 38 42 12 47 -29 109 -27 140 5 l25 25 23 -25 c27 -28 48 -31 75 -11
16 12 22 12 42 -1 30 -20 160 -19 182 1 12 11 21 12 35 4 28 -16 182 -14 202
2 11 10 18 10 26 2 14 -14 64 -16 72 -3 4 5 18 5 35 -2 39 -14 81 3 82 35 0
15 2 18 6 8 12 -32 37 -50 69 -50 18 0 36 5 39 10 4 7 11 7 18 2 7 -5 25 -12
40 -14 23 -5 30 0 42 23 18 33 20 183 4 226 -7 19 -7 29 0 31 18 6 13 67 -6
85 -37 32 -79 25 -100 -18 -15 -32 -15 -36 0 -53 20 -22 21 -34 5 -50 -9 -9
-17 -7 -34 9 -28 26 -160 35 -173 11 -5 -8 -13 -12 -20 -8 -7 5 -5 13 8 27 22
24 17 55 -14 85 -28 27 -68 22 -95 -14 -20 -25 -20 -25 -1 -58 22 -37 11 -56
-17 -31 -13 12 -35 14 -97 11 -101 -6 -113 -6 -208 2 -61 5 -82 3 -101 -9 -30
-20 -40 -11 -21 17 22 30 18 54 -11 81 -32 29 -40 30 -76 7z m72 -32 c8 -14 8
-26 0 -40 -19 -35 -80 -20 -80 20 0 40 61 55 80 20z m550 5 c16 -19 10 -45
-15 -61 -39 -26 -86 31 -53 64 16 16 53 15 68 -3z m318 3 c34 -34 -6 -90 -48
-68 -20 11 -25 35 -14 64 7 19 45 21 62 4z m-1264 -110 c47 -21 60 -54 64
-163 3 -83 1 -103 -12 -114 -22 -18 -46 -7 -59 29 -10 26 -16 30 -50 30 -31 0
-46 7 -73 34 -29 29 -34 41 -34 81 0 40 5 52 34 81 37 37 82 45 130 22z m156
-67 c4 -54 9 -77 22 -84 32 -20 48 8 48 85 0 73 14 93 49 71 22 -14 27 -120 7
-168 -28 -67 -121 -80 -171 -25 -19 21 -32 130 -21 175 5 21 12 26 34 23 26
-3 27 -5 32 -77z m235 57 c3 -13 5 -63 3 -113 l-3 -90 -30 0 -30 0 -3 99 c-1
55 0 106 2 113 9 23 55 16 61 -9z m223 10 c22 -22 13 -42 -45 -100 l-57 -58
51 0 c38 0 52 -4 57 -16 13 -34 -13 -45 -103 -42 -83 3 -86 4 -89 28 -2 19 10
37 48 75 27 27 50 52 50 55 0 3 -20 4 -45 2 -40 -4 -45 -2 -51 21 -3 14 -3 31
1 36 9 15 168 14 183 -1z m220 0 c22 -22 13 -42 -45 -101 l-58 -58 48 2 c51 3
71 -8 65 -37 -3 -17 -15 -19 -92 -22 -93 -3 -106 2 -106 41 0 10 22 42 49 70
l50 52 -38 -3 c-43 -4 -66 16 -56 48 6 18 14 20 89 20 50 0 87 -5 94 -12z
m107 -103 l0 -110 -30 0 -30 0 -3 99 c-1 55 0 106 3 113 3 9 16 13 32 11 l28
-3 0 -110z m188 103 c28 -15 47 -70 47 -135 0 -69 -9 -86 -41 -81 -22 3 -24 9
-27 58 -4 86 -9 102 -35 98 -20 -3 -22 -10 -27 -78 l-5 -75 -30 0 -30 0 -3 99
c-1 55 -1 105 2 112 6 15 122 17 149 2z m135 0 c14 -14 17 -185 3 -206 -4 -8
-19 -12 -32 -10 -23 3 -24 7 -29 101 -3 54 -1 105 3 113 10 17 39 18 55 2z
m-590 -84 c7 -5 -33 -53 -45 -54 -20 0 -26 21 -12 46 9 18 18 23 33 18 12 -4
23 -8 24 -10z m177 -24 c0 -25 -3 -36 -9 -30 -6 6 -19 10 -30 10 -17 0 -16 3
10 30 16 16 29 30 29 30 0 0 0 -18 0 -40z m-395 21 c0 -12 -26 -32 -33 -25 -9
10 4 34 19 34 8 0 14 -4 14 -9z m617 -58 c-3 -10 -5 -4 -5 12 0 17 2 24 5 18
2 -7 2 -21 0 -30z"/>
<path d="M842 798 c-27 -27 -7 -78 29 -78 21 0 49 26 49 45 0 35 -53 58 -78
33z m38 -39 c0 -5 -4 -9 -10 -9 -5 0 -10 7 -10 16 0 8 5 12 10 9 6 -3 10 -10
10 -16z"/>
</g>
</svg>
